# Blender 5.1.0
# www.blender.org
mtllib diamond.mtl
o Cube
v 0.000000 -1.130713 -0.000000
v -0.708132 0.238132 0.708132
v -0.708132 0.238132 -0.708132
v 0.708132 0.238132 0.708132
v 0.708132 0.238132 -0.708132
v -1.000000 0.238132 -0.000000
v 1.000000 0.238132 -0.000000
v 0.000000 0.238132 1.000000
v 0.000000 0.238132 -1.000000
v -0.608025 0.456484 -0.000000
v -0.430562 0.456484 -0.430562
v 0.000000 0.456484 -0.608025
v 0.430562 0.456484 -0.430562
v 0.608025 0.456484 -0.000000
v 0.430562 0.456484 0.430562
v 0.000000 0.456484 0.608025
v -0.430562 0.456484 0.430562
vn -0.7662 -0.5597 0.3158
vn -0.3158 -0.5597 -0.7662
vn 0.7662 -0.5597 -0.3158
vn 0.3158 -0.5597 0.7662
vn 0.1967 0.8565 0.4771
vn -0.0000 1.0000 -0.0000
vn -0.4771 0.8565 0.1967
vn -0.1967 0.8565 0.4771
vn 0.1967 0.8565 -0.4771
vn -0.1967 0.8565 -0.4771
vn 0.4771 0.8565 -0.1967
vn 0.4771 0.8565 0.1967
vn -0.4771 0.8565 -0.1967
vn 0.7662 -0.5597 0.3158
vn 0.3158 -0.5597 -0.7662
vn -0.7662 -0.5597 -0.3158
vn -0.3158 -0.5597 0.7662
vt 0.375000 0.000000
vt 0.625000 0.000000
vt 0.625000 0.125000
vt 0.375000 0.250000
vt 0.625000 0.250000
vt 0.625000 0.375000
vt 0.375000 0.500000
vt 0.625000 0.500000
vt 0.625000 0.625000
vt 0.375000 0.750000
vt 0.625000 0.750000
vt 0.625000 0.875000
vt 0.750000 0.500000
vt 0.875000 0.500000
vt 0.875000 0.625000
vt 0.875000 0.750000
vt 0.750000 0.750000
vt 0.625000 1.000000
s 0
f 1/1/1 2/2/1 6/3/1
f 1/4/2 3/5/2 9/6/2
f 1/7/3 5/8/3 7/9/3
f 1/10/4 4/11/4 8/12/4
f 8/12/5 4/11/5 15/11/5 16/12/5
f 13/8/6 12/13/6 11/14/6 10/15/6 17/16/6 16/17/6 15/11/6 14/9/6
f 6/3/7 2/2/7 17/2/7 10/3/7
f 2/18/8 8/12/8 16/12/8 17/18/8
f 5/8/9 9/6/9 12/6/9 13/8/9
f 9/6/10 3/5/10 11/5/10 12/6/10
f 7/9/11 5/8/11 13/8/11 14/9/11
f 4/11/12 7/9/12 14/9/12 15/11/12
f 3/5/13 6/3/13 10/3/13 11/5/13
f 4/11/14 1/7/14 7/9/14
f 5/8/15 1/4/15 9/6/15
f 3/5/16 1/1/16 6/3/16
f 2/18/17 1/10/17 8/12/17
