# Blender 5.1.0
# www.blender.org
mtllib tetrahedron.mtl
o Cone
v 0.000000 -0.360000 -1.000000
v 0.866025 -0.360000 0.500000
v -0.866025 -0.360000 0.500000
v 0.000000 1.080000 0.000000
vn 0.8181 0.3280 -0.4723
vn -0.0000 -1.0000 -0.0000
vn -0.0000 0.3280 0.9447
vn -0.8181 0.3280 -0.4723
vt 0.250000 0.490000
vt 0.250000 0.250000
vt 0.457846 0.130000
vt 0.750000 0.490000
vt 0.957846 0.130000
vt 0.542154 0.130000
vt 0.042154 0.130000
s 0
f 1/1/1 4/2/1 2/3/1
f 1/4/2 2/5/2 3/6/2
f 2/3/3 4/2/3 3/7/3
f 3/7/4 4/2/4 1/1/4
