# Blender 5.1.0
# www.blender.org
mtllib octahedron.mtl
o Cube.001
v 1.000000 -0.000000 -1.000000
v 0.000000 -1.600000 0.000000
v 1.000000 0.000000 1.000000
v -1.000000 -0.000000 -1.000000
v -1.000000 0.000000 1.000000
v 0.000000 1.600000 -0.000000
vn -0.8480 0.5300 -0.0000
vn -0.0000 -0.5300 0.8480
vn -0.8480 -0.5300 -0.0000
vn 0.8480 -0.5300 -0.0000
vn -0.0000 -0.5300 -0.8480
vn 0.8480 0.5300 -0.0000
vn -0.0000 0.5300 -0.8480
vn -0.0000 0.5300 0.8480
vt 0.625000 0.250000
vt 0.625000 0.000000
vt 0.375000 0.750000
vt 0.625000 0.750000
vt 0.625000 1.000000
vt 0.375000 0.000000
vt 0.375000 0.500000
vt 0.625000 0.500000
vt 0.375000 0.250000
s 1
usemtl Material.001
f 4/1/1 5/2/1 6/1/1
f 2/3/2 3/4/2 5/5/2
f 2/6/3 5/2/3 4/1/3
f 2/7/4 1/8/4 3/4/4
f 2/9/5 4/1/5 1/8/5
f 3/4/6 1/8/6 6/4/6
f 1/8/7 4/1/7 6/8/7
f 5/5/8 3/4/8 6/5/8
